<mxfile host="app.diagrams.net" modified="2023-11-02T19:11:50.972Z" agent="Mozilla/5.0 (Macintosh; Intel Mac OS X 10_15_7) AppleWebKit/537.36 (KHTML, like Gecko) Chrome/116.0.0.0 Safari/537.36" etag="oAH9_KVqQgraJdCCTKmK" version="22.0.8" type="device">
  <diagram name="Page-1" id="TFEQclnoPQvQl7hKy5wX">
    <mxGraphModel dx="954" dy="505" grid="1" gridSize="10" guides="1" tooltips="1" connect="1" arrows="1" fold="1" page="1" pageScale="1" pageWidth="827" pageHeight="1169" math="0" shadow="0">
      <root>
        <mxCell id="0" />
        <mxCell id="1" parent="0" />
        <mxCell id="5ijX1I-tO3T3CHy8N6uQ-1" value="&lt;b&gt;game-logic&lt;/b&gt;" style="rounded=1;whiteSpace=wrap;html=1;verticalAlign=top;fillColor=#E6E6E6;strokeColor=none;" vertex="1" parent="1">
          <mxGeometry x="30" y="50" width="390" height="460" as="geometry" />
        </mxCell>
        <mxCell id="5ijX1I-tO3T3CHy8N6uQ-3" value="&lt;b&gt;components&lt;/b&gt;" style="rounded=1;whiteSpace=wrap;html=1;verticalAlign=top;fillColor=#E6E6E6;strokeColor=none;" vertex="1" parent="1">
          <mxGeometry x="450" y="50" width="290" height="460" as="geometry" />
        </mxCell>
        <mxCell id="5ijX1I-tO3T3CHy8N6uQ-9" value="&lt;b&gt;&lt;font style=&quot;font-size: 15px;&quot;&gt;Duel&lt;/font&gt;&lt;/b&gt;" style="rounded=1;whiteSpace=wrap;html=1;verticalAlign=top;" vertex="1" parent="1">
          <mxGeometry x="40" y="190" width="370" height="290" as="geometry" />
        </mxCell>
        <mxCell id="5ijX1I-tO3T3CHy8N6uQ-11" value="&lt;b&gt;actionQueue&lt;/b&gt;" style="rounded=1;whiteSpace=wrap;html=1;verticalAlign=top;" vertex="1" parent="1">
          <mxGeometry x="80" y="225" width="110" height="140" as="geometry" />
        </mxCell>
        <mxCell id="5ijX1I-tO3T3CHy8N6uQ-13" value="&lt;b&gt;cards&lt;/b&gt;" style="rounded=1;whiteSpace=wrap;html=1;verticalAlign=top;" vertex="1" parent="1">
          <mxGeometry x="240" y="225" width="110" height="120" as="geometry" />
        </mxCell>
        <mxCell id="5ijX1I-tO3T3CHy8N6uQ-14" value="" style="shape=image;verticalLabelPosition=bottom;labelBackgroundColor=default;verticalAlign=top;aspect=fixed;imageAspect=0;image=data:image/png,iVBORw0KGgoAAAANSUhEUgAAADoAAAA7CAYAAAAq55mNAAAAAXNSR0IArs4c6QAAAERlWElmTU0AKgAAAAgAAYdpAAQAAAABAAAAGgAAAAAAA6ABAAMAAAABAAEAAKACAAQAAAABAAAAOqADAAQAAAABAAAAOwAAAACey4JEAAACBElEQVRoBe1aQVLFIAxtHS/ixru49gwewJN4AM/g2ru48Si1MAYhTdpQQj9g/qaQJo+XvA6E0XmifwttTqxzNKvtHy3lh5L1nGPgGAYIafl+fUSmaXp4+9rYwKDhD1i/63DcnJs0Uefrce7dKOenkdBewXK4CH1dUebsRIXgl7pRxQcCUNQ7MIz+tERHU9gUNUU7rQB7vMC2LM2rtj/i4ZqAnKbhr0VCQNxUAh53NLn+3Lqc3eMLztE5JsWBtW6vXczW8/+n/Pyn+/7xKZF/enl+2nzqvcTOQHRN4lDr1df7QMIasYeLRg543ejV4TA5XgS7FwtYEsuCKr6wFlCxmE1AmaJNyKBIwhRVLGYTUKZoEzIokkgahtw7ZcyjJDbGqTUOvSu0c0cLQRsW+/UYG/O3cY8VsGsapVqNa1rJ9ZDiyNmSXbfkqnWrWC4xbLeGAVek97kp2ruCmL8piivS+9wU7V1BzD9pGEquWreKxQlxc7umcZUxe+MVCJ9u4zwpepK/AIb8woBCYmxZC6wYuf7MshuzBNcF+RyTXXcDxRioKxnadRMSlD9Aozgwaz4dF91/eqQSuiARSVGWU4pKkK/2oYoMHFyxrQWEaozyNEVHURLyMEWhEqM8Tx0vuWdjrr+wuK7jSRqTvbgziXJt4yJIiIvd47j3Tpys9sJ7pGq+O1T2BzCCxV5koG/mAAAAAElFTkSuQmCC;" vertex="1" parent="1">
          <mxGeometry x="250" y="250" width="88.47" height="90" as="geometry" />
        </mxCell>
        <mxCell id="5ijX1I-tO3T3CHy8N6uQ-15" value="&lt;b&gt;&lt;font style=&quot;font-size: 15px;&quot;&gt;ReactDuel&lt;/font&gt;&lt;/b&gt;" style="rounded=1;whiteSpace=wrap;html=1;verticalAlign=top;" vertex="1" parent="1">
          <mxGeometry x="130" y="530" width="230" height="130" as="geometry" />
        </mxCell>
        <mxCell id="5ijX1I-tO3T3CHy8N6uQ-16" value="&lt;b&gt;refreshUI()&lt;/b&gt; {&lt;br&gt;&amp;nbsp; // not implemented&lt;br&gt;}" style="text;html=1;strokeColor=none;fillColor=none;align=left;verticalAlign=middle;whiteSpace=wrap;rounded=0;" vertex="1" parent="1">
          <mxGeometry x="260" y="370" width="140" height="90" as="geometry" />
        </mxCell>
        <mxCell id="5ijX1I-tO3T3CHy8N6uQ-17" value="&lt;b&gt;setCardsState&lt;/b&gt;&lt;b style=&quot;border-color: var(--border-color);&quot;&gt;&amp;nbsp;&lt;/b&gt;&lt;i style=&quot;border-color: var(--border-color);&quot;&gt;(from DuelBoard)&lt;/i&gt;&lt;br&gt;&lt;br&gt;&lt;b&gt;refreshUI()&lt;/b&gt; {&lt;br&gt;&amp;nbsp; this.setCardsState(cards);&lt;br&gt;&amp;nbsp;}" style="text;html=1;strokeColor=none;fillColor=none;align=left;verticalAlign=middle;whiteSpace=wrap;rounded=0;" vertex="1" parent="1">
          <mxGeometry x="165" y="560" width="185" height="90" as="geometry" />
        </mxCell>
        <mxCell id="5ijX1I-tO3T3CHy8N6uQ-19" value="&lt;b&gt;&lt;font style=&quot;font-size: 15px;&quot;&gt;DuelBoard&lt;/font&gt;&lt;/b&gt;" style="rounded=1;whiteSpace=wrap;html=1;verticalAlign=top;" vertex="1" parent="1">
          <mxGeometry x="490" y="250" width="210" height="170" as="geometry" />
        </mxCell>
        <mxCell id="5ijX1I-tO3T3CHy8N6uQ-20" value="&lt;b&gt;cardsState&lt;br&gt;&lt;br&gt;setCardsState&lt;br&gt;&lt;br&gt;reactDuel&lt;/b&gt;" style="text;html=1;strokeColor=none;fillColor=none;align=left;verticalAlign=middle;whiteSpace=wrap;rounded=0;" vertex="1" parent="1">
          <mxGeometry x="540" y="300" width="120" height="90" as="geometry" />
        </mxCell>
        <mxCell id="5ijX1I-tO3T3CHy8N6uQ-21" value="&lt;div&gt;&lt;b&gt;executeOneAction()&lt;/b&gt; {&lt;/div&gt;&lt;div&gt;&amp;nbsp; const action =&amp;nbsp;&lt;/div&gt;&lt;div&gt;&amp;nbsp; &amp;nbsp; &amp;nbsp;this.actionsQueue.shift();&lt;/div&gt;&lt;div&gt;&amp;nbsp; action.execute();&lt;/div&gt;&lt;div&gt;&amp;nbsp; this.refreshUI();&lt;/div&gt;&lt;div&gt;}&lt;/div&gt;" style="text;html=1;strokeColor=none;fillColor=none;align=left;verticalAlign=middle;whiteSpace=wrap;rounded=0;" vertex="1" parent="1">
          <mxGeometry x="80" y="370" width="220" height="110" as="geometry" />
        </mxCell>
        <mxCell id="5ijX1I-tO3T3CHy8N6uQ-22" value="&lt;p style=&quot;line-height: 70%;&quot;&gt;&lt;b&gt;Action&lt;br&gt;&lt;br&gt;execute() {...}&lt;br&gt;&lt;/b&gt;&lt;/p&gt;" style="rounded=1;whiteSpace=wrap;html=1;" vertex="1" parent="1">
          <mxGeometry x="87.5" y="250" width="95" height="40" as="geometry" />
        </mxCell>
        <mxCell id="5ijX1I-tO3T3CHy8N6uQ-24" value="&lt;p style=&quot;line-height: 70%;&quot;&gt;&lt;b&gt;Action&lt;br&gt;&lt;br&gt;execute() {...}&lt;br&gt;&lt;/b&gt;&lt;/p&gt;" style="rounded=1;whiteSpace=wrap;html=1;" vertex="1" parent="1">
          <mxGeometry x="87.5" y="295.5" width="95" height="40" as="geometry" />
        </mxCell>
        <mxCell id="5ijX1I-tO3T3CHy8N6uQ-25" value="&lt;font style=&quot;font-size: 21px;&quot;&gt;. . .&lt;/font&gt;" style="text;html=1;strokeColor=none;fillColor=none;align=center;verticalAlign=middle;whiteSpace=wrap;rounded=0;" vertex="1" parent="1">
          <mxGeometry x="105" y="330" width="60" height="30" as="geometry" />
        </mxCell>
        <mxCell id="5ijX1I-tO3T3CHy8N6uQ-27" value="Game logic class&lt;br&gt;..." style="rounded=1;whiteSpace=wrap;html=1;" vertex="1" parent="1">
          <mxGeometry x="57.5" y="100" width="102.5" height="60" as="geometry" />
        </mxCell>
        <mxCell id="5ijX1I-tO3T3CHy8N6uQ-28" value="Game logic class&lt;br&gt;..." style="rounded=1;whiteSpace=wrap;html=1;" vertex="1" parent="1">
          <mxGeometry x="175" y="100" width="100" height="60" as="geometry" />
        </mxCell>
        <mxCell id="5ijX1I-tO3T3CHy8N6uQ-29" value="Component&lt;br&gt;..." style="rounded=1;whiteSpace=wrap;html=1;" vertex="1" parent="1">
          <mxGeometry x="460" y="130" width="80" height="60" as="geometry" />
        </mxCell>
        <mxCell id="5ijX1I-tO3T3CHy8N6uQ-30" value="Component&lt;br&gt;..." style="rounded=1;whiteSpace=wrap;html=1;" vertex="1" parent="1">
          <mxGeometry x="555" y="130" width="80" height="60" as="geometry" />
        </mxCell>
        <mxCell id="5ijX1I-tO3T3CHy8N6uQ-31" value="Game logic class&lt;br&gt;..." style="rounded=1;whiteSpace=wrap;html=1;" vertex="1" parent="1">
          <mxGeometry x="290" y="100" width="110" height="60" as="geometry" />
        </mxCell>
        <mxCell id="5ijX1I-tO3T3CHy8N6uQ-33" value="Component&lt;br&gt;..." style="rounded=1;whiteSpace=wrap;html=1;" vertex="1" parent="1">
          <mxGeometry x="650" y="130" width="80" height="60" as="geometry" />
        </mxCell>
        <mxCell id="5ijX1I-tO3T3CHy8N6uQ-44" value="" style="strokeWidth=2;html=1;shape=mxgraph.flowchart.extract_or_measurement;whiteSpace=wrap;" vertex="1" parent="1">
          <mxGeometry x="225" y="480" width="30" height="20" as="geometry" />
        </mxCell>
        <mxCell id="5ijX1I-tO3T3CHy8N6uQ-45" value="" style="endArrow=none;html=1;rounded=0;exitX=0.472;exitY=-0.003;exitDx=0;exitDy=0;exitPerimeter=0;entryX=0.5;entryY=1;entryDx=0;entryDy=0;entryPerimeter=0;" edge="1" parent="1" source="5ijX1I-tO3T3CHy8N6uQ-15" target="5ijX1I-tO3T3CHy8N6uQ-44">
          <mxGeometry width="50" height="50" relative="1" as="geometry">
            <mxPoint x="460" y="500" as="sourcePoint" />
            <mxPoint x="510" y="450" as="targetPoint" />
          </mxGeometry>
        </mxCell>
        <mxCell id="5ijX1I-tO3T3CHy8N6uQ-50" value="" style="endArrow=classic;startArrow=classic;html=1;rounded=0;entryX=0.5;entryY=1;entryDx=0;entryDy=0;exitX=1;exitY=0.5;exitDx=0;exitDy=0;dashed=1;" edge="1" parent="1" source="5ijX1I-tO3T3CHy8N6uQ-15" target="5ijX1I-tO3T3CHy8N6uQ-19">
          <mxGeometry width="50" height="50" relative="1" as="geometry">
            <mxPoint x="400" y="600" as="sourcePoint" />
            <mxPoint x="680" y="480" as="targetPoint" />
          </mxGeometry>
        </mxCell>
        <mxCell id="5ijX1I-tO3T3CHy8N6uQ-51" value="DuelBoard interacts with ReactDuel by calling &lt;b&gt;executeOneAction&lt;/b&gt;" style="text;html=1;strokeColor=none;fillColor=none;align=center;verticalAlign=middle;whiteSpace=wrap;rounded=0;" vertex="1" parent="1">
          <mxGeometry x="370" y="570" width="200" height="70" as="geometry" />
        </mxCell>
        <mxCell id="5ijX1I-tO3T3CHy8N6uQ-52" value="ReactDuel interacts with DuelBoard by calling &lt;b&gt;setCardState&lt;/b&gt;" style="text;html=1;strokeColor=none;fillColor=none;align=center;verticalAlign=middle;whiteSpace=wrap;rounded=0;" vertex="1" parent="1">
          <mxGeometry x="520" y="455" width="200" height="70" as="geometry" />
        </mxCell>
      </root>
    </mxGraphModel>
  </diagram>
</mxfile>
